<svg id="skills-chart.svg" xmlns="http://www.w3.org/2000/svg" width="1366" height="575" viewBox="0 0 1366 575">
  <defs>
    <style>
      .cls-1, .cls-2, .cls-3 {
        fill: none;
        stroke-width: 2px;
        fill-rule: evenodd;
      }

      .cls-1 {
        stroke: #ccc;
      }

      .cls-1, .cls-2 {
        opacity: 0.3;
      }

      .cls-2 {
        stroke: #b0b0b0;
      }

      .cls-3 {
        stroke: #e9e9e9;
        opacity: 0.49;
      }

      .cls-4 {
        fill: #f7df1e;
      }

      .cls-4, .cls-5, .cls-6 {
        stroke: #0c121f;
        stroke-width: 3px;
      }

      .cls-5 {
        fill: #2a9cd7;
      }

      .cls-6 {
        fill: #e34f26;
      }
    </style>
  </defs>
  <g>
    <path id="css_path" data-name="css path" class="cls-1" d="M8.961,2150.72s33.905-45.68,134.346-43.7,126.342-114.59,168.182-89.97c41.269,24.28,134.658-104.94,185.1-39.42,48.688,63.25,39.674-99.6,130.365-96.83,34.294,1.05,89.145-96.66,155.244-22.28,31.88,35.87,143.633,1.12,173.157-28.28,100.186-99.74,175.806-112.25,200.026-99.4,124.07,65.86,69.02-46.74,147.28-21.42S1439,1682,1439,1682l-26.87,503L1,2170.43Z" transform="translate(0 -1570)"/>
    <path id="html_path" data-name="html path" class="cls-2" d="M0.961,2150.72s33.905-35.68,134.346-33.7,126.342-124.59,168.182-99.97c41.269,24.28,134.658-104.94,185.1-39.42,48.688,63.25,58.721-49.4,149.412-46.63,34.294,1.05,100.1-106.86,166.2-32.48,31.88,35.87,1.38-68.78,175.8-52.52,140.76,13.12,144.76-88.38,172-87,140.28,7.12,90.45-106.47,162.38-66.57,32.95,18.28,116.65-10.62,116.62-10.43l-26.87,503L-7,2170.43Z" transform="translate(0 -1570)"/>
    <path id="js_path" data-name="js path" class="cls-3" d="M377.029,2143.16s25.677-55.77,101.741-53.35,95.679-139.88,127.364-109.83c31.253,29.65,101.977-128.09,140.175-48.11,36.872,77.2,30.045-121.58,98.726-118.2,25.971,1.28,67.51-117.98,117.567-27.19,24.143,43.78,108.778,1.36,131.128-34.52,75.88-121.75,133.14-137.03,151.48-121.34,93.96,80.39,52.27-57.06,111.54-26.15S1460,1571,1460,1571l-20.35,614L371,2167.22Z" transform="translate(0 -1570)"/>
  </g>
  <circle class="cls-4" cx="1290" cy="89" r="7"/>
  <circle class="cls-5" cx="1290" cy="115" r="7"/>
  <circle class="cls-6" cx="1290" cy="140" r="7"/>
</svg>
